<svg width="307" height="140" viewBox="0 0 307 140" fill="none" xmlns="http://www.w3.org/2000/svg">
<g filter="url(#filter0_d_2_66)">
<rect x="26" y="14" width="255" height="88" rx="8" fill="white"/>
</g>
<path d="M53.7519 53.0293H86.2479C86.2479 53.0293 87.1559 52.2853 86.2479 51.3373L70.0039 41.7773L53.7519 51.3333C53.7519 51.3333 52.6279 52.3453 53.7519 53.0293ZM87.3079 72.9133L85.3479 71.2093C85.2399 71.1173 84.9959 71.0413 84.7959 71.0413L55.6039 71.0853C55.4079 71.0853 55.1479 71.1573 55.0279 71.2453L52.7199 72.9213C52.5999 73.0093 52.5039 73.1693 52.5039 73.2773V74.0253C52.5039 74.1333 52.6639 74.2253 52.8639 74.2253H87.1479C87.3439 74.2253 87.5079 74.1373 87.5079 74.0253V73.2813C87.4999 73.1693 87.4119 73.0053 87.3079 72.9133ZM82.1599 54.3533H85.1519V69.3493H82.1599V54.3533ZM77.2639 54.3533H80.2559V69.3493H77.2639V54.3533ZM60.2079 54.3533H63.1999V69.3493H60.2079V54.3533ZM55.3119 54.3533H58.3039V69.3493H55.3119V54.3533ZM70.0639 69.3293C70.2919 69.3293 70.5199 69.2973 70.7359 69.2333V67.4173C71.6639 67.2093 72.3719 66.8093 72.8599 66.2173C73.3439 65.6293 73.5879 64.9053 73.5879 64.0493C73.5879 63.5373 73.5239 63.1133 73.3999 62.7733C73.2759 62.4333 73.0999 62.1453 72.8759 61.9133C72.6519 61.6773 72.3759 61.4773 72.0519 61.3093C71.7279 61.1413 71.3679 60.9733 70.9719 60.8093L70.0319 60.4173C69.8759 60.3533 69.7199 60.2853 69.5639 60.2133C69.4079 60.1413 69.2679 60.0533 69.1399 59.9533C69.0159 59.8533 68.9159 59.7333 68.8439 59.5853C68.7719 59.4373 68.7359 59.2613 68.7359 59.0533C68.7359 58.8133 68.7839 58.6173 68.8759 58.4653C68.9679 58.3133 69.0879 58.1973 69.2359 58.1133C69.3839 58.0293 69.5479 57.9733 69.7279 57.9493C69.9119 57.9253 70.0919 57.9093 70.2679 57.9093C70.5599 57.9093 70.8199 57.9213 71.0519 57.9493C71.2799 57.9773 71.4879 58.0093 71.6719 58.0493C71.8559 58.0893 72.0279 58.1453 72.1879 58.2053C72.3479 58.2693 72.5079 58.3293 72.6639 58.3933C72.9359 57.8093 73.1039 57.2133 73.1639 56.6093C72.7359 56.4613 72.3279 56.3453 71.9439 56.2573C71.5559 56.1693 71.1559 56.1093 70.7359 56.0773V54.4653C70.4959 54.4013 70.2679 54.3733 70.0479 54.3733C69.8199 54.3733 69.5919 54.4053 69.3759 54.4653V56.1253C68.4359 56.2413 67.6999 56.5693 67.1679 57.1133C66.6359 57.6573 66.3679 58.3973 66.3679 59.3373C66.3679 59.7773 66.4239 60.1453 66.5319 60.4493C66.6399 60.7533 66.7999 61.0173 66.9999 61.2413C67.2039 61.4653 67.4479 61.6573 67.7279 61.8213C68.0079 61.9853 68.3239 62.1373 68.6679 62.2853L69.4999 62.6453C69.6759 62.7293 69.8599 62.8093 70.0479 62.8813C70.2359 62.9533 70.4039 63.0413 70.5559 63.1493C70.7079 63.2533 70.8319 63.3853 70.9319 63.5493C71.0319 63.7093 71.0799 63.9173 71.0799 64.1693C71.0799 64.6693 70.8999 65.0333 70.5399 65.2573C70.1799 65.4813 69.6719 65.5933 69.0119 65.5933C68.5719 65.5933 68.1599 65.5613 67.7759 65.4933C67.3879 65.4253 66.9759 65.3013 66.5399 65.1253C66.4239 65.4613 66.3239 65.7813 66.2439 66.0893C66.1599 66.3973 66.1039 66.7013 66.0719 67.0053C66.3319 67.1093 66.5839 67.1973 66.8239 67.2733C67.0639 67.3453 67.3079 67.4053 67.5519 67.4533C67.7959 67.5013 68.0559 67.5333 68.3279 67.5533C68.5999 67.5733 68.9079 67.5853 69.2519 67.5853H69.3759V69.2453C69.6039 69.2973 69.8359 69.3293 70.0639 69.3293Z" fill="url(#paint0_linear_2_66)"/>
<path d="M119.22 70.349C119.724 70.349 120.168 70.289 120.552 70.169C120.942 70.043 121.266 69.869 121.524 69.647C121.788 69.419 121.986 69.149 122.118 68.837C122.25 68.525 122.316 68.18 122.316 67.802C122.316 67.034 122.064 66.455 121.56 66.065C121.056 65.675 120.3 65.48 119.292 65.48H117.384V70.349H119.22ZM125.178 77H123.63C123.312 77 123.078 76.877 122.928 76.631L119.58 72.023C119.478 71.879 119.367 71.777 119.247 71.717C119.133 71.651 118.953 71.618 118.707 71.618H117.384V77H115.647V64.103H119.292C120.108 64.103 120.813 64.187 121.407 64.355C122.001 64.517 122.49 64.754 122.874 65.066C123.264 65.378 123.552 65.756 123.738 66.2C123.924 66.638 124.017 67.13 124.017 67.676C124.017 68.132 123.945 68.558 123.801 68.954C123.657 69.35 123.447 69.707 123.171 70.025C122.901 70.337 122.568 70.604 122.172 70.826C121.782 71.048 121.338 71.216 120.84 71.33C121.062 71.456 121.254 71.639 121.416 71.879L125.178 77ZM130.902 75.767C131.298 75.731 131.646 75.647 131.946 75.515C132.246 75.377 132.498 75.203 132.702 74.993C132.912 74.783 133.068 74.54 133.17 74.264C133.278 73.982 133.332 73.673 133.332 73.337C133.332 73.037 133.275 72.779 133.161 72.563C133.053 72.347 132.903 72.161 132.711 72.005C132.519 71.843 132.294 71.708 132.036 71.6C131.778 71.486 131.502 71.381 131.208 71.285L130.902 75.767ZM130.605 65.363C130.215 65.399 129.876 65.477 129.588 65.597C129.306 65.717 129.072 65.867 128.886 66.047C128.7 66.227 128.562 66.431 128.472 66.659C128.382 66.881 128.337 67.115 128.337 67.361C128.337 67.649 128.388 67.901 128.49 68.117C128.592 68.327 128.733 68.513 128.913 68.675C129.093 68.837 129.303 68.978 129.543 69.098C129.783 69.218 130.044 69.326 130.326 69.422L130.605 65.363ZM131.316 69.737C131.748 69.875 132.174 70.022 132.594 70.178C133.014 70.334 133.392 70.535 133.728 70.781C134.064 71.027 134.334 71.336 134.538 71.708C134.748 72.074 134.853 72.533 134.853 73.085C134.853 73.625 134.763 74.132 134.583 74.606C134.403 75.08 134.139 75.497 133.791 75.857C133.449 76.217 133.026 76.511 132.522 76.739C132.024 76.961 131.454 77.093 130.812 77.135L130.704 78.71C130.698 78.824 130.653 78.923 130.569 79.007C130.485 79.097 130.38 79.142 130.254 79.142H129.66L129.795 77.117C129.069 77.045 128.406 76.865 127.806 76.577C127.212 76.283 126.699 75.911 126.267 75.461L126.753 74.723C126.801 74.657 126.861 74.603 126.933 74.561C127.005 74.519 127.083 74.498 127.167 74.498C127.281 74.498 127.41 74.555 127.554 74.669C127.698 74.783 127.875 74.912 128.085 75.056C128.301 75.2 128.553 75.341 128.841 75.479C129.135 75.617 129.486 75.71 129.894 75.758L130.218 70.979C129.798 70.853 129.384 70.712 128.976 70.556C128.574 70.4 128.211 70.193 127.887 69.935C127.569 69.677 127.311 69.356 127.113 68.972C126.921 68.588 126.825 68.105 126.825 67.523C126.825 67.085 126.909 66.659 127.077 66.245C127.251 65.825 127.503 65.453 127.833 65.129C128.163 64.805 128.568 64.541 129.048 64.337C129.528 64.127 130.077 64.01 130.695 63.986L130.785 62.69C130.791 62.576 130.833 62.474 130.911 62.384C130.995 62.294 131.103 62.249 131.235 62.249H131.829L131.712 64.022C132.336 64.1 132.876 64.262 133.332 64.508C133.794 64.754 134.202 65.054 134.556 65.408L134.169 66.002C134.049 66.182 133.911 66.272 133.755 66.272C133.671 66.272 133.566 66.236 133.44 66.164C133.32 66.086 133.173 65.996 132.999 65.894C132.831 65.792 132.63 65.693 132.396 65.597C132.168 65.501 131.907 65.429 131.613 65.381L131.316 69.737ZM147.202 72.347V67.028C147.202 66.872 147.208 66.701 147.22 66.515C147.232 66.329 147.25 66.14 147.274 65.948L142.576 72.347H147.202ZM150.559 72.347V73.265C150.559 73.361 150.529 73.442 150.469 73.508C150.415 73.574 150.328 73.607 150.208 73.607H148.606V77H147.202V73.607H141.478C141.358 73.607 141.253 73.574 141.163 73.508C141.079 73.436 141.025 73.349 141.001 73.247L140.839 72.428L147.112 64.103H148.606V72.347H150.559ZM160.056 75.479C160.23 75.479 160.368 75.53 160.47 75.632C160.572 75.734 160.623 75.866 160.623 76.028V77H152.019V76.451C152.019 76.337 152.043 76.22 152.091 76.1C152.139 75.98 152.214 75.869 152.316 75.767L156.447 71.618C156.789 71.27 157.101 70.937 157.383 70.619C157.665 70.295 157.905 69.971 158.103 69.647C158.301 69.323 158.454 68.996 158.562 68.666C158.67 68.33 158.724 67.973 158.724 67.595C158.724 67.217 158.664 66.887 158.544 66.605C158.424 66.317 158.259 66.08 158.049 65.894C157.845 65.708 157.602 65.57 157.32 65.48C157.038 65.384 156.735 65.336 156.411 65.336C156.081 65.336 155.778 65.384 155.502 65.48C155.226 65.576 154.98 65.711 154.764 65.885C154.554 66.053 154.377 66.254 154.233 66.488C154.089 66.722 153.987 66.98 153.927 67.262C153.855 67.472 153.756 67.613 153.63 67.685C153.51 67.751 153.339 67.769 153.117 67.739L152.28 67.595C152.364 67.007 152.526 66.488 152.766 66.038C153.012 65.582 153.318 65.201 153.684 64.895C154.056 64.589 154.479 64.358 154.953 64.202C155.427 64.04 155.94 63.959 156.492 63.959C157.038 63.959 157.548 64.04 158.022 64.202C158.496 64.364 158.907 64.601 159.255 64.913C159.603 65.219 159.876 65.594 160.074 66.038C160.272 66.482 160.371 66.986 160.371 67.55C160.371 68.03 160.299 68.477 160.155 68.891C160.011 69.299 159.816 69.689 159.57 70.061C159.324 70.433 159.039 70.796 158.715 71.15C158.397 71.504 158.058 71.861 157.698 72.221L154.296 75.695C154.536 75.629 154.779 75.578 155.025 75.542C155.271 75.5 155.508 75.479 155.736 75.479H160.056ZM171.444 64.103V64.823C171.444 65.027 171.42 65.195 171.372 65.327C171.33 65.459 171.288 65.57 171.246 65.66L165.9 76.433C165.822 76.589 165.714 76.724 165.576 76.838C165.438 76.946 165.255 77 165.027 77H163.875L169.293 66.362C169.371 66.212 169.452 66.074 169.536 65.948C169.62 65.822 169.71 65.702 169.806 65.588H163.074C162.972 65.588 162.882 65.549 162.804 65.471C162.726 65.387 162.687 65.294 162.687 65.192V64.103H171.444ZM173.255 76.01C173.255 75.854 173.282 75.707 173.336 75.569C173.396 75.431 173.474 75.311 173.57 75.209C173.672 75.107 173.792 75.026 173.93 74.966C174.068 74.906 174.215 74.876 174.371 74.876C174.527 74.876 174.674 74.906 174.812 74.966C174.95 75.026 175.07 75.107 175.172 75.209C175.274 75.311 175.355 75.431 175.415 75.569C175.475 75.707 175.505 75.854 175.505 76.01C175.505 76.172 175.475 76.322 175.415 76.46C175.355 76.592 175.274 76.709 175.172 76.811C175.07 76.913 174.95 76.991 174.812 77.045C174.674 77.105 174.527 77.135 174.371 77.135C174.215 77.135 174.068 77.105 173.93 77.045C173.792 76.991 173.672 76.913 173.57 76.811C173.474 76.709 173.396 76.592 173.336 76.46C173.282 76.322 173.255 76.172 173.255 76.01ZM177.78 67.595C177.864 67.007 178.026 66.488 178.266 66.038C178.506 65.582 178.809 65.201 179.175 64.895C179.547 64.589 179.97 64.358 180.444 64.202C180.924 64.04 181.44 63.959 181.992 63.959C182.538 63.959 183.042 64.037 183.504 64.193C183.966 64.349 184.362 64.571 184.692 64.859C185.028 65.147 185.289 65.495 185.475 65.903C185.661 66.311 185.754 66.764 185.754 67.262C185.754 67.67 185.7 68.036 185.592 68.36C185.49 68.678 185.34 68.957 185.142 69.197C184.95 69.437 184.716 69.641 184.44 69.809C184.164 69.977 183.855 70.115 183.513 70.223C184.353 70.439 184.983 70.811 185.403 71.339C185.829 71.861 186.042 72.515 186.042 73.301C186.042 73.895 185.928 74.429 185.7 74.903C185.478 75.377 185.172 75.782 184.782 76.118C184.392 76.448 183.936 76.703 183.414 76.883C182.898 77.057 182.343 77.144 181.749 77.144C181.065 77.144 180.48 77.06 179.994 76.892C179.508 76.718 179.097 76.481 178.761 76.181C178.425 75.881 178.149 75.527 177.933 75.119C177.717 74.705 177.534 74.258 177.384 73.778L178.077 73.49C178.257 73.412 178.431 73.391 178.599 73.427C178.773 73.463 178.899 73.562 178.977 73.724C179.055 73.892 179.151 74.093 179.265 74.327C179.385 74.561 179.547 74.786 179.751 75.002C179.955 75.218 180.213 75.401 180.525 75.551C180.843 75.701 181.245 75.776 181.731 75.776C182.181 75.776 182.574 75.704 182.91 75.56C183.252 75.41 183.534 75.218 183.756 74.984C183.984 74.75 184.155 74.489 184.269 74.201C184.383 73.913 184.44 73.628 184.44 73.346C184.44 72.998 184.395 72.68 184.305 72.392C184.215 72.104 184.047 71.855 183.801 71.645C183.555 71.435 183.216 71.27 182.784 71.15C182.358 71.03 181.809 70.97 181.137 70.97V69.809C181.689 69.803 182.157 69.743 182.541 69.629C182.931 69.515 183.246 69.359 183.486 69.161C183.732 68.963 183.909 68.726 184.017 68.45C184.131 68.174 184.188 67.868 184.188 67.532C184.188 67.16 184.128 66.836 184.008 66.56C183.894 66.284 183.735 66.056 183.531 65.876C183.327 65.696 183.084 65.561 182.802 65.471C182.526 65.381 182.226 65.336 181.902 65.336C181.578 65.336 181.275 65.384 180.993 65.48C180.717 65.576 180.471 65.711 180.255 65.885C180.045 66.053 179.868 66.254 179.724 66.488C179.58 66.722 179.478 66.98 179.418 67.262C179.34 67.472 179.241 67.613 179.121 67.685C179.007 67.751 178.839 67.769 178.617 67.739L177.78 67.595ZM197.052 70.556C197.052 71.684 196.929 72.662 196.683 73.49C196.443 74.312 196.113 74.993 195.693 75.533C195.273 76.073 194.775 76.475 194.199 76.739C193.629 77.003 193.017 77.135 192.363 77.135C191.703 77.135 191.088 77.003 190.518 76.739C189.954 76.475 189.462 76.073 189.042 75.533C188.622 74.993 188.292 74.312 188.052 73.49C187.812 72.662 187.692 71.684 187.692 70.556C187.692 69.428 187.812 68.45 188.052 67.622C188.292 66.794 188.622 66.11 189.042 65.57C189.462 65.024 189.954 64.619 190.518 64.355C191.088 64.091 191.703 63.959 192.363 63.959C193.017 63.959 193.629 64.091 194.199 64.355C194.775 64.619 195.273 65.024 195.693 65.57C196.113 66.11 196.443 66.794 196.683 67.622C196.929 68.45 197.052 69.428 197.052 70.556ZM195.387 70.556C195.387 69.572 195.303 68.747 195.135 68.081C194.973 67.409 194.751 66.869 194.469 66.461C194.193 66.053 193.872 65.762 193.506 65.588C193.14 65.408 192.759 65.318 192.363 65.318C191.967 65.318 191.586 65.408 191.22 65.588C190.854 65.762 190.533 66.053 190.257 66.461C189.981 66.869 189.759 67.409 189.591 68.081C189.429 68.747 189.348 69.572 189.348 70.556C189.348 71.54 189.429 72.365 189.591 73.031C189.759 73.697 189.981 74.234 190.257 74.642C190.533 75.05 190.854 75.344 191.22 75.524C191.586 75.698 191.967 75.785 192.363 75.785C192.759 75.785 193.14 75.698 193.506 75.524C193.872 75.344 194.193 75.05 194.469 74.642C194.751 74.234 194.973 73.697 195.135 73.031C195.303 72.365 195.387 71.54 195.387 70.556ZM207.593 70.556C207.593 71.684 207.47 72.662 207.224 73.49C206.984 74.312 206.654 74.993 206.234 75.533C205.814 76.073 205.316 76.475 204.74 76.739C204.17 77.003 203.558 77.135 202.904 77.135C202.244 77.135 201.629 77.003 201.059 76.739C200.495 76.475 200.003 76.073 199.583 75.533C199.163 74.993 198.833 74.312 198.593 73.49C198.353 72.662 198.233 71.684 198.233 70.556C198.233 69.428 198.353 68.45 198.593 67.622C198.833 66.794 199.163 66.11 199.583 65.57C200.003 65.024 200.495 64.619 201.059 64.355C201.629 64.091 202.244 63.959 202.904 63.959C203.558 63.959 204.17 64.091 204.74 64.355C205.316 64.619 205.814 65.024 206.234 65.57C206.654 66.11 206.984 66.794 207.224 67.622C207.47 68.45 207.593 69.428 207.593 70.556ZM205.928 70.556C205.928 69.572 205.844 68.747 205.676 68.081C205.514 67.409 205.292 66.869 205.01 66.461C204.734 66.053 204.413 65.762 204.047 65.588C203.681 65.408 203.3 65.318 202.904 65.318C202.508 65.318 202.127 65.408 201.761 65.588C201.395 65.762 201.074 66.053 200.798 66.461C200.522 66.869 200.3 67.409 200.132 68.081C199.97 68.747 199.889 69.572 199.889 70.556C199.889 71.54 199.97 72.365 200.132 73.031C200.3 73.697 200.522 74.234 200.798 74.642C201.074 75.05 201.395 75.344 201.761 75.524C202.127 75.698 202.508 75.785 202.904 75.785C203.3 75.785 203.681 75.698 204.047 75.524C204.413 75.344 204.734 75.05 205.01 74.642C205.292 74.234 205.514 73.697 205.676 73.031C205.844 72.365 205.928 71.54 205.928 70.556ZM209.404 79.178C209.356 79.136 209.323 79.097 209.305 79.061C209.287 79.025 209.278 78.98 209.278 78.926C209.278 78.884 209.29 78.842 209.314 78.8C209.344 78.758 209.377 78.719 209.413 78.683C209.473 78.617 209.548 78.53 209.638 78.422C209.734 78.314 209.83 78.185 209.926 78.035C210.022 77.891 210.109 77.729 210.187 77.549C210.271 77.375 210.331 77.189 210.367 76.991C210.349 76.997 210.328 77 210.304 77C210.286 77 210.268 77 210.25 77C209.938 77 209.683 76.898 209.485 76.694C209.293 76.484 209.197 76.217 209.197 75.893C209.197 75.611 209.293 75.371 209.485 75.173C209.683 74.975 209.944 74.876 210.268 74.876C210.448 74.876 210.607 74.909 210.745 74.975C210.883 75.041 210.997 75.134 211.087 75.254C211.183 75.368 211.255 75.503 211.303 75.659C211.351 75.809 211.375 75.974 211.375 76.154C211.375 76.424 211.336 76.706 211.258 77C211.186 77.288 211.075 77.573 210.925 77.855C210.781 78.143 210.604 78.422 210.394 78.692C210.184 78.962 209.944 79.211 209.674 79.439L209.404 79.178ZM215.67 68.972C216.342 68.828 216.96 68.756 217.524 68.756C218.196 68.756 218.79 68.855 219.306 69.053C219.822 69.251 220.251 69.524 220.593 69.872C220.941 70.22 221.202 70.631 221.376 71.105C221.556 71.579 221.646 72.095 221.646 72.653C221.646 73.337 221.526 73.955 221.286 74.507C221.052 75.059 220.725 75.533 220.305 75.929C219.891 76.319 219.402 76.619 218.838 76.829C218.274 77.039 217.665 77.144 217.011 77.144C216.633 77.144 216.27 77.105 215.922 77.027C215.574 76.955 215.247 76.856 214.941 76.73C214.641 76.604 214.362 76.46 214.104 76.298C213.846 76.136 213.618 75.965 213.42 75.785L213.915 75.101C214.023 74.945 214.164 74.867 214.338 74.867C214.458 74.867 214.593 74.915 214.743 75.011C214.893 75.101 215.076 75.203 215.292 75.317C215.508 75.431 215.76 75.536 216.048 75.632C216.342 75.722 216.69 75.767 217.092 75.767C217.542 75.767 217.947 75.695 218.307 75.551C218.667 75.407 218.976 75.203 219.234 74.939C219.492 74.669 219.69 74.348 219.828 73.976C219.966 73.604 220.035 73.187 220.035 72.725C220.035 72.323 219.975 71.96 219.855 71.636C219.741 71.312 219.564 71.036 219.324 70.808C219.09 70.58 218.796 70.403 218.442 70.277C218.088 70.151 217.674 70.088 217.2 70.088C216.876 70.088 216.537 70.115 216.183 70.169C215.835 70.223 215.478 70.31 215.112 70.43L214.104 70.133L215.139 64.103H221.25V64.805C221.25 65.033 221.178 65.222 221.034 65.372C220.896 65.516 220.656 65.588 220.314 65.588H216.264L215.67 68.972ZM232.854 70.556C232.854 71.684 232.731 72.662 232.485 73.49C232.245 74.312 231.915 74.993 231.495 75.533C231.075 76.073 230.577 76.475 230.001 76.739C229.431 77.003 228.819 77.135 228.165 77.135C227.505 77.135 226.89 77.003 226.32 76.739C225.756 76.475 225.264 76.073 224.844 75.533C224.424 74.993 224.094 74.312 223.854 73.49C223.614 72.662 223.494 71.684 223.494 70.556C223.494 69.428 223.614 68.45 223.854 67.622C224.094 66.794 224.424 66.11 224.844 65.57C225.264 65.024 225.756 64.619 226.32 64.355C226.89 64.091 227.505 63.959 228.165 63.959C228.819 63.959 229.431 64.091 230.001 64.355C230.577 64.619 231.075 65.024 231.495 65.57C231.915 66.11 232.245 66.794 232.485 67.622C232.731 68.45 232.854 69.428 232.854 70.556ZM231.189 70.556C231.189 69.572 231.105 68.747 230.937 68.081C230.775 67.409 230.553 66.869 230.271 66.461C229.995 66.053 229.674 65.762 229.308 65.588C228.942 65.408 228.561 65.318 228.165 65.318C227.769 65.318 227.388 65.408 227.022 65.588C226.656 65.762 226.335 66.053 226.059 66.461C225.783 66.869 225.561 67.409 225.393 68.081C225.231 68.747 225.15 69.572 225.15 70.556C225.15 71.54 225.231 72.365 225.393 73.031C225.561 73.697 225.783 74.234 226.059 74.642C226.335 75.05 226.656 75.344 227.022 75.524C227.388 75.698 227.769 75.785 228.165 75.785C228.561 75.785 228.942 75.698 229.308 75.524C229.674 75.344 229.995 75.05 230.271 74.642C230.553 74.234 230.775 73.697 230.937 73.031C231.105 72.365 231.189 71.54 231.189 70.556Z" fill="url(#paint1_linear_2_66)"/>
<path d="M121.056 47.446V49H115.127V38.878H117.01V47.446H121.056ZM128.115 41.818V49H127.058C126.829 49 126.684 48.895 126.624 48.685L126.505 48.111C126.211 48.4097 125.886 48.6523 125.532 48.839C125.177 49.021 124.759 49.112 124.279 49.112C123.887 49.112 123.539 49.0467 123.236 48.916C122.937 48.7807 122.685 48.5917 122.48 48.349C122.274 48.1063 122.118 47.8193 122.011 47.488C121.908 47.152 121.857 46.7833 121.857 46.382V41.818H123.586V46.382C123.586 46.8207 123.686 47.1613 123.887 47.404C124.092 47.642 124.398 47.761 124.804 47.761C125.102 47.761 125.382 47.6957 125.644 47.565C125.905 47.4297 126.152 47.2453 126.386 47.012V41.818H128.115ZM135.074 43.337C135.023 43.4023 134.971 43.4537 134.92 43.491C134.873 43.5283 134.803 43.547 134.71 43.547C134.621 43.547 134.535 43.5213 134.451 43.47C134.367 43.414 134.267 43.3533 134.15 43.288C134.033 43.218 133.893 43.1573 133.73 43.106C133.571 43.05 133.373 43.022 133.135 43.022C132.832 43.022 132.566 43.078 132.337 43.19C132.108 43.2973 131.917 43.4537 131.763 43.659C131.614 43.8643 131.502 44.114 131.427 44.408C131.352 44.6973 131.315 45.0263 131.315 45.395C131.315 45.7777 131.355 46.1183 131.434 46.417C131.518 46.7157 131.637 46.9677 131.791 47.173C131.945 47.3737 132.132 47.5277 132.351 47.635C132.57 47.7377 132.818 47.789 133.093 47.789C133.368 47.789 133.59 47.7563 133.758 47.691C133.931 47.621 134.075 47.5463 134.192 47.467C134.309 47.383 134.409 47.3083 134.493 47.243C134.582 47.173 134.68 47.138 134.787 47.138C134.927 47.138 135.032 47.1917 135.102 47.299L135.599 47.929C135.408 48.153 135.2 48.342 134.976 48.496C134.752 48.6453 134.519 48.7667 134.276 48.86C134.038 48.9487 133.791 49.0117 133.534 49.049C133.282 49.0863 133.03 49.105 132.778 49.105C132.335 49.105 131.917 49.0233 131.525 48.86C131.133 48.692 130.79 48.4493 130.496 48.132C130.202 47.8147 129.969 47.4273 129.796 46.97C129.628 46.508 129.544 45.983 129.544 45.395C129.544 44.8677 129.619 44.38 129.768 43.932C129.922 43.4793 130.146 43.0897 130.44 42.763C130.734 42.4317 131.098 42.1727 131.532 41.986C131.966 41.7993 132.465 41.706 133.03 41.706C133.567 41.706 134.036 41.7923 134.437 41.965C134.843 42.1377 135.207 42.385 135.529 42.707L135.074 43.337ZM138.414 43.064C138.638 42.6347 138.904 42.2987 139.212 42.056C139.52 41.8087 139.884 41.685 140.304 41.685C140.635 41.685 140.901 41.7573 141.102 41.902L140.99 43.197C140.967 43.281 140.932 43.3417 140.885 43.379C140.843 43.4117 140.785 43.428 140.71 43.428C140.64 43.428 140.535 43.4163 140.395 43.393C140.26 43.3697 140.127 43.358 139.996 43.358C139.805 43.358 139.634 43.386 139.485 43.442C139.336 43.498 139.2 43.5797 139.079 43.687C138.962 43.7897 138.857 43.9157 138.764 44.065C138.675 44.2143 138.591 44.3847 138.512 44.576V49H136.783V41.818H137.798C137.975 41.818 138.099 41.8507 138.169 41.916C138.239 41.9767 138.286 42.0887 138.309 42.252L138.414 43.064ZM145.078 41.706C145.61 41.706 146.093 41.7923 146.527 41.965C146.966 42.1377 147.339 42.3827 147.647 42.7C147.96 43.0173 148.2 43.4047 148.368 43.862C148.536 44.3193 148.62 44.8303 148.62 45.395C148.62 45.9643 148.536 46.4777 148.368 46.935C148.2 47.3923 147.96 47.782 147.647 48.104C147.339 48.426 146.966 48.6733 146.527 48.846C146.093 49.0187 145.61 49.105 145.078 49.105C144.542 49.105 144.054 49.0187 143.615 48.846C143.177 48.6733 142.801 48.426 142.488 48.104C142.18 47.782 141.94 47.3923 141.767 46.935C141.599 46.4777 141.515 45.9643 141.515 45.395C141.515 44.8303 141.599 44.3193 141.767 43.862C141.94 43.4047 142.18 43.0173 142.488 42.7C142.801 42.3827 143.177 42.1377 143.615 41.965C144.054 41.7923 144.542 41.706 145.078 41.706ZM145.078 47.775C145.676 47.775 146.117 47.5743 146.401 47.173C146.691 46.7717 146.835 46.1837 146.835 45.409C146.835 44.6343 146.691 44.044 146.401 43.638C146.117 43.232 145.676 43.029 145.078 43.029C144.472 43.029 144.021 43.2343 143.727 43.645C143.438 44.051 143.293 44.639 143.293 45.409C143.293 46.179 143.438 46.767 143.727 47.173C144.021 47.5743 144.472 47.775 145.078 47.775ZM159.746 47.446V49H153.817V38.878H155.7V47.446H159.746ZM162.709 41.818V49H160.973V41.818H162.709ZM162.947 39.725C162.947 39.8743 162.917 40.0143 162.856 40.145C162.796 40.2757 162.714 40.39 162.611 40.488C162.513 40.586 162.397 40.6653 162.261 40.726C162.126 40.782 161.981 40.81 161.827 40.81C161.678 40.81 161.536 40.782 161.4 40.726C161.27 40.6653 161.155 40.586 161.057 40.488C160.959 40.39 160.88 40.2757 160.819 40.145C160.763 40.0143 160.735 39.8743 160.735 39.725C160.735 39.571 160.763 39.4263 160.819 39.291C160.88 39.1557 160.959 39.039 161.057 38.941C161.155 38.843 161.27 38.766 161.4 38.71C161.536 38.6493 161.678 38.619 161.827 38.619C161.981 38.619 162.126 38.6493 162.261 38.71C162.397 38.766 162.513 38.843 162.611 38.941C162.714 39.039 162.796 39.1557 162.856 39.291C162.917 39.4263 162.947 39.571 162.947 39.725ZM169.08 43.652C168.889 43.414 168.676 43.246 168.443 43.148C168.21 43.05 167.96 43.001 167.694 43.001C167.433 43.001 167.197 43.05 166.987 43.148C166.777 43.246 166.597 43.3953 166.448 43.596C166.299 43.792 166.184 44.044 166.105 44.352C166.026 44.6553 165.986 45.0147 165.986 45.43C165.986 45.85 166.019 46.207 166.084 46.501C166.154 46.7903 166.252 47.0283 166.378 47.215C166.504 47.397 166.658 47.53 166.84 47.614C167.022 47.6933 167.225 47.733 167.449 47.733C167.808 47.733 168.114 47.6583 168.366 47.509C168.618 47.3597 168.856 47.1473 169.08 46.872V43.652ZM170.809 41.818V51.345H169.08V48.09C168.795 48.3933 168.473 48.6383 168.114 48.825C167.755 49.0117 167.337 49.105 166.861 49.105C166.469 49.105 166.11 49.0233 165.783 48.86C165.456 48.6967 165.174 48.461 164.936 48.153C164.703 47.8403 164.521 47.4553 164.39 46.998C164.264 46.5407 164.201 46.018 164.201 45.43C164.201 44.898 164.273 44.4033 164.418 43.946C164.563 43.4887 164.77 43.092 165.041 42.756C165.312 42.42 165.636 42.1587 166.014 41.972C166.392 41.7807 166.817 41.685 167.288 41.685C167.736 41.685 168.112 41.762 168.415 41.916C168.718 42.07 168.989 42.2777 169.227 42.539L169.318 42.133C169.379 41.923 169.523 41.818 169.752 41.818H170.809ZM178.803 41.818V49H177.746C177.518 49 177.373 48.895 177.312 48.685L177.193 48.111C176.899 48.4097 176.575 48.6523 176.22 48.839C175.866 49.021 175.448 49.112 174.967 49.112C174.575 49.112 174.228 49.0467 173.924 48.916C173.626 48.7807 173.374 48.5917 173.168 48.349C172.963 48.1063 172.807 47.8193 172.699 47.488C172.597 47.152 172.545 46.7833 172.545 46.382V41.818H174.274V46.382C174.274 46.8207 174.375 47.1613 174.575 47.404C174.781 47.642 175.086 47.761 175.492 47.761C175.791 47.761 176.071 47.6957 176.332 47.565C176.594 47.4297 176.841 47.2453 177.074 47.012V41.818H178.803ZM182.41 41.818V49H180.674V41.818H182.41ZM182.648 39.725C182.648 39.8743 182.617 40.0143 182.557 40.145C182.496 40.2757 182.414 40.39 182.312 40.488C182.214 40.586 182.097 40.6653 181.962 40.726C181.826 40.782 181.682 40.81 181.528 40.81C181.378 40.81 181.236 40.782 181.101 40.726C180.97 40.6653 180.856 40.586 180.758 40.488C180.66 40.39 180.58 40.2757 180.52 40.145C180.464 40.0143 180.436 39.8743 180.436 39.725C180.436 39.571 180.464 39.4263 180.52 39.291C180.58 39.1557 180.66 39.039 180.758 38.941C180.856 38.843 180.97 38.766 181.101 38.71C181.236 38.6493 181.378 38.619 181.528 38.619C181.682 38.619 181.826 38.6493 181.962 38.71C182.097 38.766 182.214 38.843 182.312 38.941C182.414 39.039 182.496 39.1557 182.557 39.291C182.617 39.4263 182.648 39.571 182.648 39.725ZM188.78 43.652C188.584 43.414 188.37 43.246 188.136 43.148C187.908 43.05 187.66 43.001 187.394 43.001C187.133 43.001 186.897 43.05 186.687 43.148C186.477 43.246 186.298 43.3953 186.148 43.596C185.999 43.792 185.885 44.044 185.805 44.352C185.726 44.6553 185.686 45.0147 185.686 45.43C185.686 45.85 185.719 46.207 185.784 46.501C185.854 46.7903 185.952 47.0283 186.078 47.215C186.204 47.397 186.358 47.53 186.54 47.614C186.722 47.6933 186.925 47.733 187.149 47.733C187.509 47.733 187.814 47.6583 188.066 47.509C188.318 47.3597 188.556 47.1473 188.78 46.872V43.652ZM190.509 38.598V49H189.452C189.224 49 189.079 48.895 189.018 48.685L188.871 47.992C188.582 48.3233 188.248 48.5917 187.87 48.797C187.497 49.0023 187.061 49.105 186.561 49.105C186.169 49.105 185.81 49.0233 185.483 48.86C185.157 48.6967 184.874 48.461 184.636 48.153C184.403 47.8403 184.221 47.4553 184.09 46.998C183.964 46.5407 183.901 46.018 183.901 45.43C183.901 44.898 183.974 44.4033 184.118 43.946C184.263 43.4887 184.471 43.092 184.741 42.756C185.012 42.42 185.336 42.1587 185.714 41.972C186.092 41.7807 186.517 41.685 186.988 41.685C187.39 41.685 187.733 41.748 188.017 41.874C188.302 42 188.556 42.1703 188.78 42.385V38.598H190.509ZM195.494 41.706C196.026 41.706 196.509 41.7923 196.943 41.965C197.381 42.1377 197.755 42.3827 198.063 42.7C198.375 43.0173 198.616 43.4047 198.784 43.862C198.952 44.3193 199.036 44.8303 199.036 45.395C199.036 45.9643 198.952 46.4777 198.784 46.935C198.616 47.3923 198.375 47.782 198.063 48.104C197.755 48.426 197.381 48.6733 196.943 48.846C196.509 49.0187 196.026 49.105 195.494 49.105C194.957 49.105 194.469 49.0187 194.031 48.846C193.592 48.6733 193.216 48.426 192.904 48.104C192.596 47.782 192.355 47.3923 192.183 46.935C192.015 46.4777 191.931 45.9643 191.931 45.395C191.931 44.8303 192.015 44.3193 192.183 43.862C192.355 43.4047 192.596 43.0173 192.904 42.7C193.216 42.3827 193.592 42.1377 194.031 41.965C194.469 41.7923 194.957 41.706 195.494 41.706ZM195.494 47.775C196.091 47.775 196.532 47.5743 196.817 47.173C197.106 46.7717 197.251 46.1837 197.251 45.409C197.251 44.6343 197.106 44.044 196.817 43.638C196.532 43.232 196.091 43.029 195.494 43.029C194.887 43.029 194.437 43.2343 194.143 43.645C193.853 44.051 193.709 44.639 193.709 45.409C193.709 46.179 193.853 46.767 194.143 47.173C194.437 47.5743 194.887 47.775 195.494 47.775ZM205.114 44.611C205.114 45.5723 205.231 46.5173 205.464 47.446C205.697 48.3747 206.031 49.2473 206.465 50.064C206.512 50.1573 206.537 50.239 206.542 50.309C206.551 50.3837 206.547 50.4467 206.528 50.498C206.509 50.554 206.479 50.6007 206.437 50.638C206.4 50.68 206.358 50.715 206.311 50.743L205.541 51.212C205.196 50.68 204.902 50.1457 204.659 49.609C204.416 49.0723 204.218 48.531 204.064 47.985C203.91 47.439 203.796 46.886 203.721 46.326C203.651 45.766 203.616 45.1943 203.616 44.611C203.616 44.0277 203.651 43.456 203.721 42.896C203.796 42.3313 203.91 41.776 204.064 41.23C204.218 40.684 204.416 40.145 204.659 39.613C204.902 39.0763 205.196 38.542 205.541 38.01L206.311 38.472C206.358 38.5 206.4 38.535 206.437 38.577C206.479 38.6143 206.509 38.661 206.528 38.717C206.547 38.7683 206.551 38.8313 206.542 38.906C206.537 38.976 206.512 39.06 206.465 39.158C206.031 39.97 205.697 40.8427 205.464 41.776C205.231 42.7047 205.114 43.6497 205.114 44.611ZM216.244 43.925V48.02C215.731 48.398 215.183 48.6757 214.599 48.853C214.021 49.0257 213.4 49.112 212.737 49.112C211.911 49.112 211.162 48.9837 210.49 48.727C209.823 48.4703 209.251 48.1133 208.775 47.656C208.304 47.1987 207.94 46.6527 207.683 46.018C207.427 45.3833 207.298 44.6903 207.298 43.939C207.298 43.1783 207.422 42.4807 207.669 41.846C207.917 41.2113 208.267 40.6653 208.719 40.208C209.177 39.7507 209.73 39.396 210.378 39.144C211.027 38.892 211.755 38.766 212.562 38.766C212.973 38.766 213.356 38.7987 213.71 38.864C214.07 38.9293 214.401 39.0203 214.704 39.137C215.012 39.249 215.292 39.3867 215.544 39.55C215.796 39.7133 216.027 39.893 216.237 40.089L215.698 40.943C215.614 41.0783 215.505 41.1623 215.369 41.195C215.234 41.223 215.087 41.188 214.928 41.09C214.774 41.0013 214.62 40.9127 214.466 40.824C214.312 40.7353 214.14 40.6583 213.948 40.593C213.762 40.5277 213.549 40.474 213.311 40.432C213.078 40.39 212.807 40.369 212.499 40.369C212 40.369 211.547 40.453 211.141 40.621C210.74 40.789 210.397 41.0293 210.112 41.342C209.828 41.6547 209.608 42.0303 209.454 42.469C209.3 42.9077 209.223 43.3977 209.223 43.939C209.223 44.5177 209.305 45.0357 209.468 45.493C209.636 45.9457 209.87 46.3307 210.168 46.648C210.472 46.9607 210.836 47.201 211.26 47.369C211.685 47.5323 212.159 47.614 212.681 47.614C213.055 47.614 213.388 47.5743 213.682 47.495C213.976 47.4157 214.263 47.3083 214.543 47.173V45.339H213.269C213.148 45.339 213.052 45.3063 212.982 45.241C212.917 45.171 212.884 45.087 212.884 44.989V43.925H216.244ZM222.431 44.583C222.431 44.359 222.398 44.149 222.333 43.953C222.272 43.7523 222.179 43.5773 222.053 43.428C221.927 43.2787 221.766 43.162 221.57 43.078C221.378 42.9893 221.154 42.945 220.898 42.945C220.398 42.945 220.004 43.0873 219.715 43.372C219.43 43.6567 219.248 44.0603 219.169 44.583H222.431ZM219.134 45.626C219.162 45.9947 219.227 46.3143 219.33 46.585C219.432 46.851 219.568 47.0727 219.736 47.25C219.904 47.4227 220.102 47.5533 220.331 47.642C220.564 47.726 220.821 47.768 221.101 47.768C221.381 47.768 221.621 47.7353 221.822 47.67C222.027 47.6047 222.204 47.5323 222.354 47.453C222.508 47.3737 222.641 47.3013 222.753 47.236C222.869 47.1707 222.981 47.138 223.089 47.138C223.233 47.138 223.341 47.1917 223.411 47.299L223.908 47.929C223.716 48.153 223.502 48.342 223.264 48.496C223.026 48.6453 222.776 48.7667 222.515 48.86C222.258 48.9487 221.994 49.0117 221.724 49.049C221.458 49.0863 221.199 49.105 220.947 49.105C220.447 49.105 219.983 49.0233 219.554 48.86C219.124 48.692 218.751 48.447 218.434 48.125C218.116 47.7983 217.867 47.397 217.685 46.921C217.503 46.4403 217.412 45.885 217.412 45.255C217.412 44.765 217.491 44.3053 217.65 43.876C217.808 43.442 218.035 43.0663 218.329 42.749C218.627 42.427 218.989 42.1727 219.414 41.986C219.843 41.7993 220.326 41.706 220.863 41.706C221.315 41.706 221.733 41.7783 222.116 41.923C222.498 42.0677 222.827 42.28 223.103 42.56C223.378 42.8353 223.593 43.176 223.747 43.582C223.905 43.9833 223.985 44.443 223.985 44.961C223.985 45.2223 223.957 45.3997 223.901 45.493C223.845 45.5817 223.737 45.626 223.579 45.626H219.134ZM227.013 43.064C227.237 42.6347 227.503 42.2987 227.811 42.056C228.119 41.8087 228.483 41.685 228.903 41.685C229.234 41.685 229.5 41.7573 229.701 41.902L229.589 43.197C229.566 43.281 229.531 43.3417 229.484 43.379C229.442 43.4117 229.384 43.428 229.309 43.428C229.239 43.428 229.134 43.4163 228.994 43.393C228.859 43.3697 228.726 43.358 228.595 43.358C228.404 43.358 228.233 43.386 228.084 43.442C227.935 43.498 227.799 43.5797 227.678 43.687C227.561 43.7897 227.456 43.9157 227.363 44.065C227.274 44.2143 227.19 44.3847 227.111 44.576V49H225.382V41.818H226.397C226.574 41.818 226.698 41.8507 226.768 41.916C226.838 41.9767 226.885 42.0887 226.908 42.252L227.013 43.064ZM234.403 45.934C233.904 45.9573 233.484 46.0017 233.143 46.067C232.802 46.1277 232.529 46.207 232.324 46.305C232.119 46.403 231.972 46.5173 231.883 46.648C231.794 46.7787 231.75 46.921 231.75 47.075C231.75 47.3783 231.839 47.5953 232.016 47.726C232.198 47.8567 232.434 47.922 232.723 47.922C233.078 47.922 233.383 47.859 233.64 47.733C233.901 47.6023 234.156 47.4063 234.403 47.145V45.934ZM230.441 42.819C231.267 42.063 232.261 41.685 233.423 41.685C233.843 41.685 234.219 41.755 234.55 41.895C234.881 42.0303 235.161 42.2217 235.39 42.469C235.619 42.7117 235.791 43.0033 235.908 43.344C236.029 43.6847 236.09 44.058 236.09 44.464V49H235.306C235.143 49 235.017 48.9767 234.928 48.93C234.839 48.8787 234.769 48.7783 234.718 48.629L234.564 48.111C234.382 48.2743 234.205 48.419 234.032 48.545C233.859 48.6663 233.68 48.769 233.493 48.853C233.306 48.937 233.106 49 232.891 49.042C232.681 49.0887 232.448 49.112 232.191 49.112C231.888 49.112 231.608 49.0723 231.351 48.993C231.094 48.909 230.873 48.7853 230.686 48.622C230.499 48.4587 230.355 48.2557 230.252 48.013C230.149 47.7703 230.098 47.488 230.098 47.166C230.098 46.984 230.128 46.8043 230.189 46.627C230.25 46.445 230.348 46.2723 230.483 46.109C230.623 45.9457 230.803 45.7917 231.022 45.647C231.241 45.5023 231.51 45.3763 231.827 45.269C232.149 45.1617 232.522 45.0753 232.947 45.01C233.372 44.94 233.857 44.898 234.403 44.884V44.464C234.403 43.9833 234.3 43.6287 234.095 43.4C233.89 43.1667 233.593 43.05 233.206 43.05C232.926 43.05 232.693 43.0827 232.506 43.148C232.324 43.2133 232.163 43.288 232.023 43.372C231.883 43.4513 231.755 43.5237 231.638 43.589C231.526 43.6543 231.4 43.687 231.26 43.687C231.139 43.687 231.036 43.6567 230.952 43.596C230.868 43.5307 230.8 43.456 230.749 43.372L230.441 42.819ZM239.568 38.598V49H237.839V38.598H239.568ZM242.364 44.611C242.364 43.6497 242.247 42.7047 242.014 41.776C241.785 40.8427 241.454 39.97 241.02 39.158C240.969 39.06 240.938 38.976 240.929 38.906C240.924 38.8313 240.931 38.7683 240.95 38.717C240.969 38.661 240.997 38.6143 241.034 38.577C241.076 38.535 241.123 38.5 241.174 38.472L241.944 38.01C242.289 38.542 242.583 39.0763 242.826 39.613C243.069 40.145 243.267 40.684 243.421 41.23C243.575 41.776 243.687 42.3313 243.757 42.896C243.827 43.456 243.862 44.0277 243.862 44.611C243.862 45.1943 243.827 45.766 243.757 46.326C243.687 46.886 243.575 47.439 243.421 47.985C243.267 48.531 243.069 49.0723 242.826 49.609C242.583 50.1457 242.289 50.68 241.944 51.212L241.174 50.743C241.123 50.715 241.076 50.68 241.034 50.638C240.997 50.6007 240.969 50.554 240.95 50.498C240.931 50.4467 240.924 50.3837 240.929 50.309C240.938 50.239 240.969 50.1573 241.02 50.064C241.454 49.2473 241.785 48.3747 242.014 47.446C242.247 46.5173 242.364 45.5723 242.364 44.611Z" fill="#25282B"/>
<defs>
<filter id="filter0_d_2_66" x="0" y="0" width="307" height="140" filterUnits="userSpaceOnUse" color-interpolation-filters="sRGB">
<feFlood flood-opacity="0" result="BackgroundImageFix"/>
<feColorMatrix in="SourceAlpha" type="matrix" values="0 0 0 0 0 0 0 0 0 0 0 0 0 0 0 0 0 0 127 0" result="hardAlpha"/>
<feOffset dy="12"/>
<feGaussianBlur stdDeviation="13"/>
<feColorMatrix type="matrix" values="0 0 0 0 0.0627451 0 0 0 0 0.117647 0 0 0 0 0.45098 0 0 0 0.06 0"/>
<feBlend mode="normal" in2="BackgroundImageFix" result="effect1_dropShadow_2_66"/>
<feBlend mode="normal" in="SourceGraphic" in2="effect1_dropShadow_2_66" result="shape"/>
</filter>
<linearGradient id="paint0_linear_2_66" x1="52.5039" y1="58.0013" x2="87.5079" y2="58.0013" gradientUnits="userSpaceOnUse">
<stop stop-color="#3374AB"/>
<stop offset="0.598958" stop-color="#5AB1F3"/>
<stop offset="1" stop-color="#6BD8FE"/>
</linearGradient>
<linearGradient id="paint1_linear_2_66" x1="114" y1="70" x2="257" y2="70" gradientUnits="userSpaceOnUse">
<stop stop-color="#3374AB"/>
<stop offset="0.598958" stop-color="#5AB1F3"/>
<stop offset="1" stop-color="#6BD8FE"/>
</linearGradient>
</defs>
</svg>
